<svg id="No_class_available" data-name="No class available" xmlns="http://www.w3.org/2000/svg" xmlns:xlink="http://www.w3.org/1999/xlink" width="211" height="152" viewBox="0 0 211 152">
  <defs>
    <clipPath id="clip-path">
      <rect id="Rectangle_45" data-name="Rectangle 45" width="174.998" height="133.446" fill="none"/>
    </clipPath>
  </defs>
  <g id="Group_40" data-name="Group 40" transform="translate(7 8.027)">
    <g id="Group_39" data-name="Group 39" clip-path="url(#clip-path)">
      <path id="Path_163" data-name="Path 163" d="M204.951,170.9a9.214,9.214,0,0,1-6.52,2.713H64.134a9.265,9.265,0,0,1-9.234-9.234V76.734A9.265,9.265,0,0,1,64.134,67.5h134.3a9.265,9.265,0,0,1,9.234,9.234v87.641a9.214,9.214,0,0,1-2.713,6.52" transform="translate(-32.666 -40.163)" fill="#dbe7fd" fill-rule="evenodd"/>
      <path id="Path_164" data-name="Path 164" d="M54.9,107.149V76.734A9.265,9.265,0,0,1,64.134,67.5h36.693a37.761,37.761,0,0,1,.365,5.224A36.011,36.011,0,0,1,54.9,107.149" transform="translate(-32.666 -40.163)" fill="#b8cdf4" fill-rule="evenodd"/>
      <path id="Path_165" data-name="Path 165" d="M204.023,175.395a5.523,5.523,0,0,0,3.847-1.579,5.285,5.285,0,0,0,1.579-3.847V82.327a5.522,5.522,0,0,0-1.579-3.847,5.45,5.45,0,0,0-3.847-1.579H69.727a5.523,5.523,0,0,0-3.847,1.579A5.45,5.45,0,0,0,64.3,82.327v87.641a5.523,5.523,0,0,0,1.579,3.847,5.285,5.285,0,0,0,3.847,1.579Z" transform="translate(-38.259 -45.756)" fill="#fff" fill-rule="evenodd"/>
      <path id="Path_166" data-name="Path 166" d="M106.784,76.9H69.727a5.523,5.523,0,0,0-3.847,1.579A5.45,5.45,0,0,0,64.3,82.327v31.306a35.949,35.949,0,0,0,42.524-35.316c-.041-.445-.041-.931-.041-1.417" transform="translate(-38.259 -45.756)" fill="#e9f0fe" fill-rule="evenodd"/>
      <path id="Path_167" data-name="Path 167" d="M258.3,257.624h58L286.65,215.383,297.5,230.854a19.254,19.254,0,0,1-26-3.645L283.774,215.1l-24.7,24.421a1.907,1.907,0,0,0-.04,2.673l.162.162Z" transform="translate(-153.69 -127.986)" fill="#006dee" fill-rule="evenodd"/>
      <path id="Path_168" data-name="Path 168" d="M316.86,230.08l-10.854-15.471a1.074,1.074,0,0,0-.2-.243,1.907,1.907,0,0,0-2.673-.04L290.9,226.435a19.2,19.2,0,0,0,25.96,3.645" transform="translate(-173.087 -127.211)" fill="#e9f0fe" fill-rule="evenodd"/>
      <path id="Path_169" data-name="Path 169" d="M258.3,287.553h18.508a3.437,3.437,0,0,0-.567-1.822L263.079,265.4l-4.09,4.009a1.907,1.907,0,0,0-.04,2.673l.162.162Z" transform="translate(-153.69 -157.914)" fill="#0062d6" fill-rule="evenodd"/>
      <path id="Path_170" data-name="Path 170" d="M293,112.2a14.832,14.832,0,0,1,10.408,4.293A14.661,14.661,0,0,1,307.7,126.9a14.832,14.832,0,0,1-4.293,10.408A14.661,14.661,0,0,1,293,141.6a14.832,14.832,0,0,1-10.408-4.293A14.661,14.661,0,0,1,278.3,126.9,14.657,14.657,0,0,1,293,112.2" transform="translate(-165.59 -66.76)" fill="#b8cdf4" fill-rule="evenodd"/>
      <path id="Path_171" data-name="Path 171" d="M55.646,9.558A32.559,32.559,0,1,1,32.6,0,32.509,32.509,0,0,1,55.646,9.558" fill="#ea5372" fill-rule="evenodd"/>
      <path id="Path_172" data-name="Path 172" d="M75.3,222.319a7.862,7.862,0,0,0,.972.081H164.6l-30.982-47.83a24,24,0,0,1-27.621.4L118.351,155.9Z" transform="translate(-44.804 -92.761)" fill="#006dee" fill-rule="evenodd"/>
      <path id="Path_173" data-name="Path 173" d="M178.661,173.289l-12.109-18.67a1.523,1.523,0,0,0-.567-.567,1.9,1.9,0,0,0-2.632.567L151,173.694a24.068,24.068,0,0,0,27.661-.4" transform="translate(-89.846 -91.48)" fill="#e9f0fe" fill-rule="evenodd"/>
      <path id="Path_174" data-name="Path 174" d="M198.874,130.2H211.51a2.875,2.875,0,0,1,0,5.751H198.874A2.887,2.887,0,0,1,196,133.075a2.835,2.835,0,0,1,2.875-2.875" transform="translate(-116.62 -77.47)" fill="#dbe7fd" fill-rule="evenodd"/>
      <path id="Path_175" data-name="Path 175" d="M218.474,138.6H231.11a2.875,2.875,0,1,1,0,5.751H218.474a2.887,2.887,0,0,1-2.875-2.875,2.835,2.835,0,0,1,2.875-2.875" transform="translate(-128.282 -82.468)" fill="#dbe7fd" fill-rule="evenodd"/>
      <path id="Path_176" data-name="Path 176" d="M347.575,183h12.636a2.875,2.875,0,1,1,0,5.751H347.575a2.875,2.875,0,0,1,0-5.751" transform="translate(-205.098 -108.886)" fill="#dbe7fd" fill-rule="evenodd"/>
      <path id="Path_177" data-name="Path 177" d="M367.175,191.4h12.636a2.875,2.875,0,0,1,0,5.751H367.175a2.875,2.875,0,1,1,0-5.751" transform="translate(-216.76 -113.884)" fill="#dbe7fd" fill-rule="evenodd"/>
      <path id="Path_178" data-name="Path 178" d="M318.375,122.3h12.636a2.875,2.875,0,1,1,0,5.751H318.375a2.875,2.875,0,0,1,0-5.751" transform="translate(-187.724 -72.769)" fill="#dbe7fd" fill-rule="evenodd"/>
      <path id="Path_179" data-name="Path 179" d="M338.074,130.7H350.71a2.875,2.875,0,0,1,0,5.751H338.074a2.887,2.887,0,0,1-2.875-2.875,2.835,2.835,0,0,1,2.875-2.875" transform="translate(-199.444 -77.767)" fill="#dbe7fd" fill-rule="evenodd"/>
      <path id="Path_180" data-name="Path 180" d="M85.816,170.5H98.452a2.9,2.9,0,0,1,0,5.791H85.816a2.9,2.9,0,1,1,0-5.791" transform="translate(-49.326 -101.448)" fill="#dbe7fd" fill-rule="evenodd"/>
      <path id="Path_181" data-name="Path 181" d="M105.474,179H118.11a2.875,2.875,0,0,1,0,5.751H105.474a2.887,2.887,0,0,1-2.875-2.875A2.835,2.835,0,0,1,105.474,179" transform="translate(-61.046 -106.506)" fill="#dbe7fd" fill-rule="evenodd"/>
      <path id="Path_182" data-name="Path 182" d="M68.477,42.539A25.857,25.857,0,1,0,60.9,60.8a25.659,25.659,0,0,0,7.573-18.265" transform="translate(-9.996 -9.937)" fill="#fff"/>
      <path id="Path_183" data-name="Path 183" d="M66.272,22.8a1.89,1.89,0,0,1,2.673,2.673L25.57,68.885A1.89,1.89,0,0,1,22.9,66.212Z" transform="translate(-13.298 -13.239)" fill="#ea5372" fill-rule="evenodd"/>
    </g>
  </g>
  <rect id="Rectangle_50" data-name="Rectangle 50" width="211" height="152" fill="none"/>
</svg>
